P1
# CREATOR: GIMP PNM Filter Version 1.1
60 30
1111111111011111101111111101111111111111011111111110111111111111101111
1111101111111111111111111011111111111101111111111110111111101111111111
0110111110110111110111111011111111011011111011011111101101111111101111
1111011111110111101101111111101111111111101111110110111110110111110110
1111011111110110111101110111001111011111111011111111011111111011110110
1111111011110111011111011110110111101101111011101101101111011110110111
1110111011011010110111011110110110101110110110111100111011011110101101
1011101101011001101101111011101111011011110110111000111011011011011111
0111101101100111001110110110101101110011101101101111001100111001110110
1111011011001110011011100111011100110010010110110011100100110010011100
1100110111001110110001101011011011001101001110110011011001101110011001
1001101011101100110110101100110100101110110110101100111011001100110011
1001010010011010111011011000110010011001010010011001100101001101011001
1001101101011001101100111001001000101001101101011000110011001100100011
0010100100100010110100110010100100110010001010011001100110001001100100
1100100011010011001001001010011100100011000100110011000110110011011000
1100100101101100110001000110001001100011001001000010010001100011001100
0010010010001100010010100100100011000110010010000100000100100100100011
1000100100001001000010001000010010011001010010001001001010000100100011
0000100100100010100100100001000100101001001000100000010010000100001001
0010001000010010000100100001000001000100001000000010010000100000000100
0000001000000001000011000100010000100100000001000010010000010010000010
0100000010000000000010000000010010000100000001000000001000000001001000
0001001000001001000000001000000100000100100000100100000000001000000010
0000000000010000000000001000000000000000000010000000001000000000000010
00000000010000000000000100000000100000010000000000