P1
# CREATOR: GIMP PNM Filter Version 1.1
60 44
1110111111101111111111111111111101111111111111111111111111111111111110
1111111111111011111111111111111111111101111011111111111111111111111101
1111111011101111110111011111111111111011011011011111011011111011111111
1111011111111110111110111111111111111101111111101111111011110111110111
1011111011111110110110110111110110111110110111101111011111101110111110
1101111111111111011111111011111111011110111101101111111011111111011110
1101111110101111110110111101111111111111010111101110111100110111011011
1110110111111011111100111011011111011110111011111111111101110110111011
0110111001111011101110111101110111101101100110110111011011101101101110
1110110110110110110111011011101110111011011101101110111011101011011110
1101111011001101101101101101101101110110111011001110110100110110011011
1110110111011100110110110111011001111101110111111101111011001011101100
1001111101011011001101110011010110100101100110111110110110111110010110
1101101110011011011101101111011110011001110011101101101100111001101011
1010111001100110011001101101100111001100100110110011100110011011001101
1011011011001110011100110101101011001110011011011001011001100110011001
1001011001100111001101101100110011001100110011000110011001101101011010
1100101100100110010110010110011011011101100110110011011001100110011011
0110011100110110011100110001100110011001001001100110110100100101101001
0011001101101100110011001110011000110010011000110000010011001100110010
0110010011001000100100110010110010110011111001011001010010100100110011
0011100110011001100110011001001001100011001100101100110011001100110010
1100100100110001100101001010011000110001100100100100100110010011001100
0110010011011001100011001001001100110011001100010100010100110001100100
0001000110001100110000100001001000100100110001001001001011001001001001
0000010011001011010010100110001001100100101000001101100100010110010000
1000000010001000001100100010010010011000000010010000010011001001101001
0001100100010010001001001001001001001001100100001001000010010100010001
0001001000100100010001000100100010010010010010010001000100100100010010
0010010011001001000010001000010001000100001100010010010001001000100000
1000000100010000100000100100011000000100000010010000010010000001100001
0001000010100000000000001000010010000001010000001001000010000000010000
0001001000010000100000000100000000100000000000001001000001000100000010
0001000010010000010010000010010010010000000100000100001000001000010000
0001000000001000000000000000010000010000000000100000000000010000010010
0000100100000100000000000000100010000001000100000000100000000000000000
1000000100001000000000000000000000000100000000000001000000000000000000
00000000000000000010000000000000000000010000000100