P1
# CREATOR: GIMP PNM Filter Version 1.1
60 14
1011011011110111111011011110111111011011110111111101111011011111111111
1111011111111111111011111111111111011111111111111101101111010111111001
1110101111110011110101111110011110011110111110011110011011110011110011
0111100111100110111100111100111001111010111011010111010111011010111010
1110110101110101110111100110110110110110110110110110110110110110110110
1101101101001100010100010010100010100010010100010100010010100010100010
1011101011101011011101011101011011101011101011011101011100110100100100
1001001001001001001001001001001001001001001001100001000101000101001000
1010001010010001010001010010001010000110001100001100001001100001100001
0011000011000010011000011000001000011000011000000101000011000000101000
0110000001010000100100000000000000010000000000000010000000000000010000
0000000000010010000100000001000010010000001000010010000001000010010010