P1
# CREATOR: GIMP PNM Filter Version 1.1
60 74
1110111111111111111111110111111111111111111111111111110111111111111111
1111111111111111111011111111111111111111111111111111111111111011111011
1111111111111111111111111111111111111111111111110111111111111101111111
1111111011110111011111011111111101111111111111011111111111111110111111
1111111111011111111011111101111110111111111111101110111111110111111111
1111111011111111111101111111110111101111111110111111111011111111011111
1011011111111110110111101111110111111011111011101101111111111111111101
1011111111111111011111011111101111111111110110110101101101111110110110
1101111101111101111110110111011111111111111111111011111111111111011111
0111110111111111011101101101101011011011101101101101111101111101111101
1101111111111111111111111111111111111111111011110111110111110111011011
1011011011110110110111011001101011101111011111011111111111101111111111
0111111111011111111111110110111110111011100110111111101011011011110011
1110011101110111110110111011101111110111001111110111100111011011110111
0111101111011101111101110111011101110111011110111101110110110110111011
1101110011110110111011110011101101101110110111111011101101101110111110
1101111011101111101111011110011101101101101101110110110110110111011110
1101101101011101111101100110110111011011011101101110111001101101101101
1001100110111111011011011011101101101110110011101101101101101110111011
1001101101101110110110111100110111011011011011111001101110110110111011
0110110111011001110110110111011011001011011100110111110110110101111001
1101101101101011011110111101111001101101100101110110110011100111101110
0111100100110011110011101101100111100101111011011011001100110100111110
1111001011001101101101101101100100110101101101110111100110110011011010
1101101011100101110111011101110011100110011110010111001101111100101100
1101100101011001100111001110011001101101011011010101101101100110011011
0011001100110100110110100110110011001100001101001110110110101101101110
0111010110011101001011011010111101011001100110011010011000110100110011
0101011100110011001111011011000110101100111001110110011011011001100111
0011011100001010011101101100110011010100101100110011101010011010010011
0110011001100101001101011001101100110011001001101010111010111101101010
0111001101010011101100110110110011010110010010110011001011011001010011
0010010011001000110101001100011010100100001010001010100110110011001100
1001100101001101011001100110010011011010011010100011001100101101010011
0011001001000110101111000100110001100110010010011001000110001100101001
1100100100001100110011000101010011001101001110011010011001100110010100
0010100100101101000110010100011000100100101001001000110100111100110011
0010011010010011010011001100110010011001100100100101010010010100100110
0110001100011001100101011001001100101100000100110001011000011001100011
0001000100010001011000101001001010010011001001100001000100100101001101
1001001001001001001100101100001000001101001100110010010010000101100001
1001001000110000110011011000011000100001100011001001000101100100100110
0001000010000100101001001001000110000101001001000001001100010010110010
0100010010010001100100010010010010001001001000100110000010010010010001
0011000010010010001001001001100010001000100100100100100011001000100100
1000100100100100000010011001100100100100100110001000100100010010010001
0010011001000001000101001001001000010001001001001001000100100100100100
0110000100001000001000100001001000001000100100100010000001001000100100
1000110000100010010000110001000010001001001001000100001000010001000100
0100010001000001000100001000010001000010010001100001000000110001000000
1000100010010000010001000110000011000010010010100000001001100010001000
0010010000000000000100000000010000000000100000000000010000010000100010
1001100100010010010000100100100010010001000001000001000010000000000000
0000000000000000000000000001000100000100000100000100100100100010010010
1001001001000100000000010000010000010000000000000010000000000000000000
0100010010000001000001000001001001001000000100100101001001000000000000
1000000100000100000000000000100100000000000000000100100010000010000001
0000001000010010000000000100100000010000000010000000001000000000100001
0000000001000000000000100000000000000001000000001000100000000000001000
0001000000100000000100000000000000001000000000000000010000000000000100
0000000100000100010000100000000000000100000000000001000000000000000000
0000000000000000000000000000000010000010000000000000000000000000000000
0000000000100000000000000000000000000000000001000000000000000000000000
000001000000000000000000001000