<?xml version="1.0" encoding="utf-8"?>
<!-- Generator: Adobe Illustrator 15.1.0, SVG Export Plug-In . SVG Version: 6.00 Build 0)  -->
<!DOCTYPE svg PUBLIC "-//W3C//DTD SVG 1.1//EN" "http://www.w3.org/Graphics/SVG/1.1/DTD/svg11.dtd">
<svg version="1.1" xmlns="http://www.w3.org/2000/svg" xmlns:xlink="http://www.w3.org/1999/xlink" x="0px" y="0px"
	 width="569.333px" height="326px" viewBox="0 0 569.333 326" enable-background="new 0 0 569.333 326" xml:space="preserve">
<g id="Layer_1" display="none">
	<path display="inline" fill="none" stroke="#000000" stroke-width="20.9541" stroke-linecap="round" d="M482.25,177.049
		c-4.855-3.391-10.125-5.268-15.635-5.268c-10.109,0-19.418,6.238-26.824,16.712c-7.371,10.423-16.631,16.495-26.674,16.495
		c-10.035,0-19.285-6.153-26.668-16.495c-7.424-10.397-16.719-16.712-26.826-16.712s-19.402,6.312-26.823,16.712
		c-7.385,10.346-16.633,16.495-26.672,16.495c-10.037,0-19.288-6.153-26.67-16.495c-7.422-10.397-16.717-16.712-26.825-16.712
		c-10.108,0-19.417,6.238-26.825,16.712c-7.37,10.423-16.633,16.495-26.671,16.495c-10.038,0-19.287-6.153-26.67-16.495
		c-7.423-10.397-16.717-16.712-26.826-16.712c-10.108,0-19.416,6.238-26.823,16.712c-7.371,10.423-16.633,16.495-26.673,16.495
		c-10.037,0-19.288-6.153-26.669-16.495"/>
	<path display="inline" fill="#FFFFFF" d="M484.789,172.477c0,1.267-1.028,2.297-2.295,2.297c-1.268,0-2.295-1.03-2.295-2.297
		c0-1.266,1.027-2.292,2.295-2.292C483.76,170.185,484.789,171.211,484.789,172.477z"/>
</g>
<g id="Layer_2" display="none">
	<g display="inline">
		<path d="M315.933,165.065c0,13.992-4.934,25.919-14.799,35.787c-9.868,9.867-21.796,14.799-35.787,14.799
			c-13.991,0-25.92-4.932-35.786-14.799c-9.867-9.867-14.8-21.795-14.8-35.787c0-13.99,4.933-25.919,14.8-35.786
			c9.866-9.866,21.795-14.8,35.786-14.8c13.99,0,25.919,4.934,35.787,14.8C311,139.146,315.933,151.075,315.933,165.065z
			 M265.348,164.245l0.068,1.641c0.318,6.518,2.723,11.94,7.212,16.269c4.488,4.33,9.946,6.494,16.372,6.494
			c6.654,0,12.248-2.334,16.783-7.006c4.533-4.671,6.801-10.448,6.801-17.33c0-12.669-4.66-23.584-13.979-32.744
			c-9.321-9.16-20.406-13.74-33.257-13.74c-13.171,0-24.143,4.387-32.915,13.159c-8.773,8.773-13.547,20.132-14.321,34.077
			c1.002-7.747,3.509-13.626,7.52-17.637c4.01-4.01,9.388-6.016,16.133-6.016c6.426,0,11.871,2.177,16.338,6.528
			C262.567,152.294,264.982,157.729,265.348,164.245z M248.463,165.065c0-1.868-0.649-3.463-1.948-4.785
			c-1.299-1.321-2.883-1.982-4.751-1.982c-1.869,0-3.464,0.661-4.785,1.982c-1.322,1.322-1.982,2.917-1.982,4.785
			c0,1.869,0.66,3.464,1.982,4.785c1.321,1.322,2.916,1.982,4.785,1.982c1.822,0,3.395-0.672,4.717-2.017
			C247.802,168.473,248.463,166.889,248.463,165.065z M295.699,165.065c0,1.869-0.661,3.464-1.982,4.785
			c-1.322,1.322-2.895,1.982-4.717,1.982c-1.869,0-3.464-0.66-4.785-1.982c-1.322-1.321-1.982-2.916-1.982-4.785
			c0-1.868,0.66-3.463,1.982-4.785c1.321-1.321,2.916-1.982,4.785-1.982c1.868,0,3.452,0.661,4.751,1.982
			C295.05,161.603,295.699,163.197,295.699,165.065z"/>
	</g>
</g>
<g id="Layer_3" display="none">
	<path display="inline" d="M311.581,148.904c0,15.986-10.286,29.751-25.577,34.34c-6.954,1.945-14.182-1.946-16.127-8.899
		c-2.086-6.95,1.945-14.179,8.895-16.124c4.035-1.253,6.814-5.007,6.814-9.316c0-5.281-4.311-9.591-9.733-9.591h-7.089v67.147
		c0,7.089-5.837,12.926-13.065,12.926c-7.233,0-12.931-5.837-12.931-12.926v-80.078c0-7.228,5.697-13.067,12.931-13.067h20.154
		C295.592,113.315,311.581,129.301,311.581,148.904z"/>
</g>
<g id="Layer_4" display="none">
	<path display="inline" d="M218.142-343.571c-3.745,0-6.769-13.033-6.769-13.033c0-1.368-1.08-2.521-2.521-2.521
		c-1.368,0-2.521,1.152-2.521,2.521c0,10.009-8.137,18.218-18.217,18.218c-10.009,0-18.218-8.209-18.218-18.218v-8.568
		c0-3.745,3.024-6.769,6.769-6.769c3.744,0,6.696,3.023,6.696,6.769v8.568c0,2.593,2.16,4.753,4.753,4.753
		c2.664,0,4.752-2.16,4.752-4.753c0-8.856,7.201-15.985,15.985-15.985c8.856,0,15.985,7.129,15.985,15.985v6.265
		C224.838-346.595,221.814-343.571,218.142-343.571z"/>
	<path display="inline" d="M192.868-350.339v-6.265c0-8.856,7.129-15.985,15.985-15.985c8.784,0,15.985,7.129,15.985,15.985
		c0,2.593,2.088,4.753,4.752,4.753c2.593,0,4.753-2.16,4.753-4.753v-8.568c0-3.745,2.952-6.769,6.696-6.769
		c3.745,0,6.769,3.023,6.769,6.769v8.568c0,10.009-8.209,18.218-18.218,18.218c-10.08,0-18.217-8.209-18.217-18.218
		c0-1.368-1.152-2.521-2.521-2.521c-1.44,0-2.521,1.152-2.521,2.521c0,0-3.023,13.033-6.769,13.033
		C195.892-343.571,192.868-346.595,192.868-350.339z"/>
	<path display="inline" d="M-244.617-254.464c0,8.28-5.329,15.409-13.249,17.786c-3.601,1.008-7.345-1.008-8.353-4.609
		c-1.08-3.6,1.008-7.344,4.608-8.352c2.088-0.648,3.528-2.593,3.528-4.825c0-2.735-2.232-4.968-5.04-4.968h-3.672v34.779
		c0,3.672-3.024,6.695-6.769,6.695c-3.745,0-6.697-3.023-6.697-6.695v-41.477c0-3.744,2.952-6.769,6.697-6.769h10.441
		C-252.897-272.897-244.617-264.617-244.617-254.464z"/>
	<path display="inline" d="M-207.825-253.896v16.804v18.794c0,9.217-7.489,16.633-16.633,16.633
		c-7.993,0-14.906-5.688-16.417-13.465c-0.432-2.377,1.152-4.607,3.456-5.041c2.304-0.432,4.537,1.08,5.041,3.385
		c0.72,3.816,4.032,6.553,7.921,6.553c4.392,0,8.064-3.6,8.064-8.064v-4.248c-2.448,1.367-5.185,2.088-8.064,2.088
		c-9.217,0-16.706-7.416-16.706-16.634v-16.804c0-2.376,1.944-4.32,4.32-4.32c2.376,0,4.32,1.944,4.32,4.32v16.804
		c0,4.464,3.6,8.065,8.065,8.065c4.392,0,8.064-3.602,8.064-8.065v-16.804c0-2.376,1.872-4.32,4.249-4.32
		C-209.77-258.217-207.825-256.272-207.825-253.896z"/>
	<path display="inline" d="M-179.603-221.701c0,2.305-1.944,4.248-4.32,4.248c-8.281,0-15.049-6.768-15.049-15.049v-17.642h-0.288
		c-2.304,0-4.249-1.944-4.249-4.32s1.944-4.32,4.249-4.32h0.288v-9.864c0-2.377,1.872-4.249,4.248-4.249
		c2.376,0,4.32,1.872,4.32,4.249v9.864h4.825c2.376,0,4.32,1.944,4.32,4.32s-1.944,4.32-4.32,4.32h-4.825v17.642
		c0,3.602,2.88,6.48,6.481,6.48C-181.547-226.021-179.603-224.076-179.603-221.701z"/>
	<path display="inline" d="M-143.458-242.582v20.377c0,2.377-1.944,4.248-4.32,4.248c-2.376,0-4.249-1.871-4.249-4.248v-20.377
		c0-4.465-3.601-8.065-8.065-8.065s-8.064,3.601-8.064,8.065v20.377c0,2.377-1.944,4.248-4.32,4.248
		c-2.088,0-3.816-1.439-4.176-3.383c-0.072-0.289-0.072-0.576-0.072-0.865v-20.377v-26.066c0-2.377,1.872-4.249,4.249-4.249
		c2.376,0,4.32,1.872,4.32,4.249v11.521c2.376-1.368,5.112-2.089,8.064-2.089C-150.947-259.217-143.458-251.799-143.458-242.582z"/>
	<path display="inline" d="M-104.795-242.582v8.424c0,9.217-7.416,16.705-16.633,16.705c-9.146,0-16.634-7.488-16.634-16.705v-8.424
		c0-9.217,7.489-16.635,16.634-16.635C-112.211-259.217-104.795-251.799-104.795-242.582z M-113.363-242.582
		c0-4.465-3.601-8.065-8.064-8.065c-4.465,0-8.065,3.601-8.065,8.065v8.424c0,4.465,3.601,8.064,8.065,8.064
		c4.464,0,8.064-3.6,8.064-8.064V-242.582z"/>
	<path display="inline" d="M-65.771-242.582v20.377c0,2.377-1.943,4.248-4.32,4.248c-2.376,0-4.248-1.871-4.248-4.248v-20.377
		c0-4.465-3.672-8.065-8.064-8.065c-4.465,0-8.064,3.601-8.064,8.065v2.592v17.785c0,2.377-1.945,4.248-4.32,4.248
		c-2.377,0-4.249-1.871-4.249-4.248v-17.785v-2.592v-11.882c0-2.376,1.872-4.32,4.249-4.32c1.512,0,2.879,0.792,3.672,2.017
		c2.52-1.584,5.473-2.449,8.713-2.449C-73.26-259.217-65.771-251.799-65.771-242.582z"/>
	<g display="inline">
		<path d="M-244.617-194.582c0,8.281-5.329,15.41-13.249,17.785c-3.601,1.01-7.345-1.008-8.353-4.607
			c-1.08-3.6,1.008-7.346,4.608-8.354c2.088-0.646,3.528-2.592,3.528-4.824c0-2.736-2.232-4.969-5.04-4.969h-3.672v34.779
			c0,3.672-3.024,6.697-6.769,6.697c-3.745,0-6.697-3.025-6.697-6.697v-41.475c0-3.744,2.952-6.77,6.697-6.77h10.441
			C-252.897-213.016-244.617-204.734-244.617-194.582z"/>
		<path d="M-219.85-195.086c0,2.377-1.944,4.32-4.321,4.32c-4.464,0-8.064,3.602-8.064,8.064v20.379
			c0,2.375-1.872,4.248-4.249,4.248c-2.376,0-4.32-1.873-4.32-4.248v-32.26c0-2.375,1.944-4.32,4.32-4.32
			c1.512,0,2.88,0.793,3.601,2.016c2.52-1.584,5.544-2.447,8.712-2.447C-221.794-199.334-219.85-197.461-219.85-195.086z"/>
		<path d="M-185.506-182.701v8.426c0,9.217-7.417,16.705-16.633,16.705c-9.145,0-16.634-7.488-16.634-16.705v-8.426
			c0-9.217,7.489-16.633,16.634-16.633C-192.922-199.334-185.506-191.918-185.506-182.701z M-194.075-182.701
			c0-4.463-3.6-8.064-8.064-8.064s-8.065,3.602-8.065,8.064v8.426c0,4.465,3.601,8.064,8.065,8.064s8.064-3.6,8.064-8.064V-182.701z
			"/>
	</g>
	<path display="inline" d="M166.226-413.417h10.44c3.746,0,6.697,3.024,6.697,6.769v41.477c0,3.672-2.951,6.695-6.697,6.695
		c-3.744,0-6.768-3.023-6.768-6.695v-34.779h-3.673c-2.808,0-5.04,2.232-5.04,4.968c0,2.232,1.439,4.177,3.528,4.825
		c3.601,1.008,5.688,4.752,4.608,8.352c-1.008,3.602-4.752,5.617-8.354,4.609c-7.92-2.377-13.248-9.506-13.248-17.786
		C147.721-405.137,156.001-413.417,166.226-413.417z"/>
	<path display="inline" d="M269.986-396.984c0,8.28-5.328,15.409-13.248,17.786c-3.602,1.008-7.346-1.008-8.354-4.609
		c-1.08-3.6,1.008-7.344,4.607-8.352c2.09-0.648,3.529-2.593,3.529-4.825c0-2.735-2.232-4.968-5.041-4.968h-3.672v34.779
		c0,3.672-3.023,6.695-6.768,6.695c-3.746,0-6.697-3.023-6.697-6.695v-41.477c0-3.744,2.951-6.769,6.697-6.769h10.439
		C261.705-415.417,269.986-407.137,269.986-396.984z"/>
	<path display="inline" d="M361.986-396.984c0,8.28-5.328,15.409-13.248,17.786c-3.602,1.008-7.346-1.008-8.354-4.609
		c-1.08-3.6,1.008-7.344,4.607-8.352c2.09-0.648,3.529-2.593,3.529-4.825c0-2.735-2.232-4.968-5.041-4.968h-3.672v34.779
		c0,3.672-3.023,6.695-6.768,6.695c-3.746,0-6.697-3.023-6.697-6.695v-41.477c0-3.744,2.951-6.769,6.697-6.769h10.439
		C353.705-415.417,361.986-407.137,361.986-396.984z"/>
	<path display="inline" d="M304.166-337.361c0-8.28,5.328-15.409,13.248-17.786c3.602-1.008,7.346,1.008,8.354,4.609
		c1.08,3.6-1.008,7.344-4.607,8.352c-2.09,0.648-3.529,2.593-3.529,4.825c0,2.735,2.232,4.968,5.041,4.968h3.672v-34.779
		c0-3.672,3.023-6.695,6.768-6.695c3.746,0,6.697,3.023,6.697,6.695v41.477c0,3.744-2.951,6.769-6.697,6.769h-10.439
		C312.447-318.927,304.166-327.208,304.166-337.361z"/>
	<path display="inline" d="M303.264-396.083c8.28,0,15.409,5.328,17.786,13.248c1.008,3.602-1.008,7.346-4.609,8.354
		c-3.6,1.08-7.344-1.008-8.352-4.607c-0.648-2.09-2.593-3.529-4.825-3.529c-2.735,0-4.968,2.232-4.968,5.041v3.672h34.779
		c3.672,0,6.695,3.023,6.695,6.768c0,3.746-3.023,6.697-6.695,6.697h-41.477c-3.744,0-6.769-2.951-6.769-6.697v-10.439
		C284.831-387.801,293.111-396.083,303.264-396.083z"/>
	<path display="inline" d="M362.887-338.262c-8.28,0-15.409-5.328-17.786-13.248c-1.008-3.602,1.008-7.346,4.609-8.354
		c3.6-1.08,7.344,1.008,8.352,4.607c0.648,2.09,2.593,3.529,4.825,3.529c2.735,0,4.968-2.232,4.968-5.041v-3.672h-34.779
		c-3.672,0-6.695-3.023-6.695-6.768c0-3.746,3.023-6.697,6.695-6.697h41.477c3.744,0,6.769,2.951,6.769,6.697v10.439
		C381.321-346.543,373.041-338.262,362.887-338.262z"/>
	<path display="inline" d="M501.732-378.535c-4.141,7.17-12.32,10.68-20.367,8.779c-3.623-0.928-5.857-4.546-4.93-8.169
		c0.865-3.657,4.545-5.856,8.166-4.929c2.135,0.482,4.354-0.48,5.469-2.414c1.368-2.369,0.551-5.419-1.881-6.823l-3.18-1.836
		l-17.391,30.12c-1.836,3.18-5.966,4.286-9.208,2.414c-3.245-1.873-4.288-5.967-2.452-9.146l20.738-35.92
		c1.871-3.242,5.939-4.387,9.184-2.514l9.041,5.221C503.777-398.64,506.808-387.328,501.732-378.535z"/>
	<path display="inline" d="M421.845-355.81c4.141-7.171,12.319-10.681,20.367-8.779c3.623,0.928,5.857,4.545,4.93,8.168
		c-0.865,3.658-4.545,5.856-8.166,4.93c-2.135-0.483-4.354,0.48-5.469,2.414c-1.368,2.369-0.551,5.418,1.881,6.822l3.18,1.836
		l17.391-30.119c1.836-3.18,5.966-4.287,9.208-2.414c3.244,1.873,4.288,5.967,2.452,9.146l-20.738,35.92
		c-1.871,3.242-5.939,4.386-9.184,2.513l-9.041-5.22C419.8-335.706,416.769-347.017,421.845-355.81z"/>
	<path display="inline" d="M450.426-407.115c7.171,4.14,10.681,12.318,8.778,20.365c-0.928,3.623-4.545,5.857-8.168,4.93
		c-3.657-0.863-5.855-4.545-4.929-8.166c0.483-2.134-0.481-4.353-2.414-5.469c-2.369-1.367-5.419-0.551-6.823,1.882l-1.836,3.181
		l30.12,17.389c3.18,1.836,4.286,5.967,2.415,9.209c-1.873,3.244-5.968,4.288-9.147,2.452l-35.92-20.738
		c-3.242-1.872-4.386-5.94-2.513-9.185l5.219-9.041C430.322-409.16,441.632-412.192,450.426-407.115z"/>
	<path display="inline" d="M473.151-327.23c-7.171-4.141-10.681-12.318-8.779-20.366c0.929-3.623,4.546-5.857,8.169-4.93
		c3.657,0.864,5.855,4.545,4.929,8.166c-0.483,2.134,0.481,4.353,2.414,5.47c2.369,1.367,5.419,0.55,6.823-1.883l1.836-3.18
		l-30.12-17.39c-3.181-1.836-4.286-5.966-2.415-9.208c1.873-3.244,5.967-4.289,9.147-2.453l35.92,20.738
		c3.242,1.873,4.386,5.94,2.513,9.185l-5.22,9.041C493.255-325.185,481.944-322.154,473.151-327.23z"/>
	<path display="inline" d="M85.736-387.734c0,8.28-5.328,15.409-13.248,17.786c-3.602,1.008-7.346-1.008-8.354-4.609
		c-1.08-3.6,1.008-7.344,4.607-8.352c2.09-0.648,3.529-2.593,3.529-4.825c0-2.735-2.232-4.968-5.041-4.968h-3.672v34.779
		c0,3.672-3.023,6.695-6.768,6.695c-3.746,0-6.697-3.023-6.697-6.695v-41.477c0-3.744,2.951-6.769,6.697-6.769H67.23
		C77.455-406.167,85.736-397.887,85.736-387.734z"/>
	<path display="inline" d="M27.916-345.361c0-8.28,5.328-15.409,13.248-17.786c3.602-1.008,7.346,1.008,8.354,4.609
		c1.08,3.6-1.008,7.344-4.607,8.352c-2.09,0.648-3.529,2.593-3.529,4.825c0,2.735,2.232,4.968,5.041,4.968h3.672v-34.779
		c0-3.672,3.023-6.695,6.768-6.695c3.746,0,6.697,3.023,6.697,6.695v41.477c0,3.744-2.951,6.769-6.697,6.769H46.421
		C36.197-326.927,27.916-335.208,27.916-345.361z"/>
	<path display="inline" d="M20.069-387.734c0,8.28-5.328,15.409-13.248,17.786c-3.602,1.008-7.346-1.008-8.354-4.609
		c-1.08-3.6,1.008-7.344,4.607-8.352c2.09-0.648,3.529-2.593,3.529-4.825c0-2.735-2.232-4.968-5.041-4.968h-3.672v34.779
		c0,3.672-3.023,6.695-6.768,6.695c-3.746,0-6.697-3.023-6.697-6.695v-41.477c0-3.744,2.951-6.769,6.697-6.769H1.563
		C11.788-406.167,20.069-397.887,20.069-387.734z"/>
	<path display="inline" d="M-37.751-345.361c0-8.28,5.328-15.409,13.248-17.786c3.602-1.008,7.346,1.008,8.354,4.609
		c1.08,3.6-1.008,7.344-4.607,8.352c-2.09,0.648-3.529,2.593-3.529,4.825c0,2.735,2.232,4.968,5.041,4.968h3.672v-34.779
		c0-3.672,3.023-6.695,6.768-6.695c3.746,0,6.697,3.023,6.697,6.695v41.477c0,3.744-2.951,6.769-6.697,6.769h-10.439
		C-29.47-326.927-37.751-335.208-37.751-345.361z"/>
	<circle display="inline" fill="#FFFFFF" cx="4.526" cy="-378.663" r="1.188"/>
	<circle display="inline" fill="#FFFFFF" cx="-24.917" cy="-358.667" r="1.188"/>
	<g display="inline">
		<path d="M-244.396-318.991c0,16.85-10.842,31.355-26.958,36.192c-7.329,2.051-14.947-2.051-16.998-9.38
			c-2.198-7.324,2.051-14.943,9.375-16.993c4.252-1.32,7.182-5.276,7.182-9.819c0-5.565-4.543-10.108-10.258-10.108h-7.472v70.771
			c0,7.472-6.152,13.623-13.771,13.623c-7.623,0-13.628-6.151-13.628-13.623v-84.398c0-7.618,6.005-13.772,13.628-13.772h21.242
			C-261.247-356.5-244.396-339.651-244.396-318.991z"/>
		<path d="M-362.05-232.769c0-16.85,10.842-31.355,26.958-36.192c7.329-2.051,14.947,2.051,16.998,9.38
			c2.198,7.324-2.051,14.943-9.375,16.993c-4.252,1.32-7.182,5.276-7.182,9.819c0,5.565,4.543,10.108,10.258,10.108h7.472v-70.771
			c0-7.472,6.152-13.623,13.771-13.623c7.623,0,13.627,6.151,13.627,13.623v84.398c0,7.618-6.005,13.772-13.627,13.772h-21.243
			C-345.199-195.26-362.05-212.108-362.05-232.769z"/>
		<circle fill="#FFFFFF" cx="-276.023" cy="-300.534" r="2.418"/>
		<circle fill="#FFFFFF" cx="-335.934" cy="-259.846" r="2.418"/>
	</g>
	<path display="inline" d="M207.247,110.904c0,15.986-10.286,29.751-25.577,34.34c-6.954,1.945-14.182-1.946-16.127-8.899
		c-2.086-6.95,1.945-14.179,8.895-16.124c4.035-1.253,6.814-5.007,6.814-9.316c0-5.281-4.311-9.591-9.733-9.591h-7.089v67.147
		c0,7.089-5.837,12.926-13.065,12.926c-7.233,0-12.931-5.837-12.931-12.926V88.382c0-7.228,5.697-13.067,12.931-13.067h20.154
		C191.258,75.315,207.247,91.301,207.247,110.904z"/>
	<path display="inline" d="M287.913,110.904c0,15.986-10.286,29.751-25.577,34.34c-6.954,1.945-14.182-1.946-16.127-8.899
		c-2.086-6.95,1.945-14.179,8.895-16.124c4.035-1.253,6.814-5.007,6.814-9.316c0-5.281-4.311-9.591-9.733-9.591h-7.089v67.147
		c0,7.089-5.837,12.926-13.065,12.926c-7.233,0-12.931-5.837-12.931-12.926V88.382c0-7.228,5.697-13.067,12.931-13.067h20.154
		C271.925,75.315,287.913,91.301,287.913,110.904z"/>
</g>
<g id="Layer_5" display="none">
	<path display="inline" d="M95.616,192.712c0-15.986,10.286-29.751,25.577-34.34c6.954-1.945,14.182,1.946,16.127,8.899
		c2.086,6.95-1.945,14.179-8.895,16.124c-4.035,1.253-6.814,5.007-6.814,9.316c0,5.281,4.311,9.591,9.733,9.591h7.089v-67.147
		c0-7.089,5.837-12.926,13.065-12.926c7.233,0,12.931,5.837,12.931,12.926v80.078c0,7.228-5.697,13.067-12.931,13.067h-20.154
		C111.604,228.301,95.616,212.315,95.616,192.712z"/>
	<path display="inline" d="M207.247,110.904c0,15.986-10.287,29.75-25.577,34.34c-6.954,1.944-14.183-1.946-16.127-8.899
		c-2.086-6.95,1.944-14.178,8.895-16.124c4.033-1.253,6.812-5.006,6.812-9.316c0-5.281-4.31-9.592-9.731-9.592h-7.089v67.148
		h-25.996V88.382c0-7.229,5.697-13.067,12.93-13.067h20.155C191.259,75.315,207.247,91.301,207.247,110.904z"/>
</g>
<g id="Layer_6" display="none">
	<path display="inline" d="M95.616,192.712c0-15.986,10.286-29.751,25.577-34.34c6.954-1.945,14.182,1.946,16.127,8.899
		c2.086,6.95-1.945,14.179-8.895,16.124c-4.035,1.253-6.814,5.007-6.814,9.316c0,5.281,4.311,9.591,9.733,9.591h7.089v-67.147
		c0-7.089,5.837-12.926,13.065-12.926c7.233,0,12.931,5.837,12.931,12.926v80.078c0,7.228-5.697,13.067-12.931,13.067h-20.154
		C111.604,228.301,95.616,212.315,95.616,192.712z"/>
	<path display="inline" d="M207.247,110.904c0,15.986-10.287,29.75-25.577,34.34c-6.954,1.944-14.183-1.946-16.127-8.899
		c-2.086-6.95,1.944-14.178,8.895-16.124c4.033-1.253,6.812-5.006,6.812-9.316c0-5.281-4.31-9.592-9.731-9.592h-7.089v67.148
		h-25.996V88.382c0-7.229,5.697-13.067,12.93-13.067h20.155C191.259,75.315,207.247,91.301,207.247,110.904z"/>
	<circle display="inline" fill="#FFFFFF" cx="178.374" cy="126.146" r="2.294"/>
	<path display="inline" fill="#FFFFFF" d="M122.689,167.021c0,1.267-1.028,2.297-2.295,2.297c-1.268,0-2.295-1.03-2.295-2.297
		c0-1.266,1.027-2.292,2.295-2.292C121.661,164.729,122.689,165.755,122.689,167.021z"/>
</g>
<g id="Layer_7" display="none">
	<g display="inline">
		<path d="M207.128,170.361c0,8.28-5.328,15.409-13.248,17.786c-3.602,1.008-7.346-1.008-8.354-4.609
			c-1.08-3.6,1.008-7.344,4.608-8.352c2.089-0.648,3.528-2.593,3.528-4.825c0-2.735-2.232-4.968-5.04-4.968h-3.673v34.778
			c0,3.673-3.023,6.696-6.768,6.696c-3.745,0-6.697-3.023-6.697-6.696v-41.476c0-3.744,2.952-6.769,6.697-6.769h10.44
			C198.848,151.927,207.128,160.208,207.128,170.361z"/>
		<path d="M243.353,170.361v18.506v18.794c0,9.217-7.489,16.633-16.634,16.633c-7.992,0-14.905-5.688-16.417-13.465
			c-0.433-2.377,1.151-4.608,3.456-5.041c2.305-0.432,4.537,1.08,5.041,3.385c0.72,3.816,4.031,6.553,7.92,6.553
			c4.393,0,8.064-3.601,8.064-8.064v-4.248c-2.447,1.367-5.184,2.088-8.064,2.088c-9.217,0-16.705-7.417-16.705-16.634v-18.506
			c0-2.376,1.943-4.32,4.32-4.32c2.376,0,4.32,1.944,4.32,4.32v18.506c0,4.464,3.6,8.064,8.064,8.064
			c4.393,0,8.064-3.601,8.064-8.064v-18.506c0-2.376,1.873-4.32,4.249-4.32S243.353,167.985,243.353,170.361z"/>
		<path d="M271.575,203.124c0,2.305-1.943,4.248-4.32,4.248c-8.28,0-15.049-6.768-15.049-15.049v-17.642h-0.288
			c-2.304,0-4.249-1.944-4.249-4.32s1.945-4.32,4.249-4.32h0.288v-9.864c0-2.377,1.872-4.249,4.248-4.249
			c2.377,0,4.32,1.872,4.32,4.249v9.864h4.824c2.377,0,4.32,1.944,4.32,4.32s-1.943,4.32-4.32,4.32h-4.824v17.642
			c0,3.601,2.881,6.48,6.48,6.48C269.631,198.803,271.575,200.748,271.575,203.124z"/>
		<path d="M307.719,182.243v20.377c0,2.377-1.943,4.248-4.32,4.248c-2.376,0-4.248-1.871-4.248-4.248v-20.377
			c0-4.465-3.601-8.065-8.064-8.065c-4.465,0-8.064,3.601-8.064,8.065v20.377c0,2.377-1.945,4.248-4.32,4.248
			c-2.089,0-3.816-1.439-4.177-3.384c-0.072-0.288-0.072-0.576-0.072-0.864v-20.377v-26.066c0-2.377,1.872-4.249,4.249-4.249
			c2.375,0,4.32,1.872,4.32,4.249v11.521c2.375-1.368,5.111-2.089,8.064-2.089C300.231,165.608,307.719,173.026,307.719,182.243z"/>
		<path d="M346.383,182.243v8.424c0,9.217-7.416,16.705-16.633,16.705c-9.146,0-16.635-7.488-16.635-16.705v-8.424
			c0-9.217,7.489-16.635,16.635-16.635C338.967,165.608,346.383,173.026,346.383,182.243z M337.815,182.243
			c0-4.465-3.601-8.065-8.064-8.065c-4.465,0-8.065,3.601-8.065,8.065v8.424c0,4.465,3.601,8.064,8.065,8.064
			c4.464,0,8.064-3.6,8.064-8.064V182.243z"/>
		<path d="M385.407,182.243v20.377c0,2.377-1.943,4.248-4.32,4.248c-2.376,0-4.248-1.871-4.248-4.248v-20.377
			c0-4.465-3.672-8.065-8.064-8.065c-4.465,0-8.064,3.601-8.064,8.065v2.592v17.785c0,2.377-1.945,4.248-4.32,4.248
			c-2.377,0-4.249-1.871-4.249-4.248v-17.785v-2.592v-11.882c0-2.376,1.872-4.32,4.249-4.32c1.512,0,2.879,0.792,3.672,2.017
			c2.52-1.584,5.473-2.449,8.713-2.449C377.918,165.608,385.407,173.026,385.407,182.243z"/>
		<path d="M427.221,170.361c0,8.28-5.328,15.409-13.248,17.786c-3.602,1.008-7.346-1.008-8.354-4.609
			c-1.08-3.6,1.008-7.344,4.608-8.352c2.089-0.648,3.528-2.593,3.528-4.825c0-2.735-2.232-4.968-5.04-4.968h-3.673v34.778
			c0,3.673-3.023,6.696-6.768,6.696c-3.745,0-6.697-3.023-6.697-6.696v-41.476c0-3.744,2.952-6.769,6.697-6.769h10.44
			C418.941,151.927,427.221,160.208,427.221,170.361z"/>
		<path d="M451.989,169.857c0,2.376-1.945,4.32-4.321,4.32c-4.464,0-8.064,3.601-8.064,8.065v20.377
			c0,2.377-1.872,4.248-4.249,4.248c-2.375,0-4.32-1.871-4.32-4.248v-32.259c0-2.376,1.945-4.32,4.32-4.32
			c1.513,0,2.881,0.792,3.602,2.017c2.52-1.584,5.544-2.449,8.712-2.449C450.043,165.608,451.989,167.481,451.989,169.857z"/>
		<path d="M485.765,182.243v8.424c0,9.217-7.416,16.705-16.633,16.705c-9.146,0-16.635-7.488-16.635-16.705v-8.424
			c0-9.217,7.489-16.635,16.635-16.635C478.349,165.608,485.765,173.026,485.765,182.243z M477.197,182.243
			c0-4.465-3.601-8.065-8.064-8.065c-4.465,0-8.065,3.601-8.065,8.065v8.424c0,4.465,3.601,8.064,8.065,8.064
			c4.464,0,8.064-3.6,8.064-8.064V182.243z"/>
	</g>
	<path display="inline" d="M95.616,192.712c0-15.986,10.286-29.751,25.577-34.34c6.954-1.945,14.182,1.946,16.127,8.899
		c2.086,6.95-1.945,14.179-8.895,16.124c-4.035,1.253-6.814,5.007-6.814,9.316c0,5.281,4.311,9.591,9.733,9.591h7.089v-67.147
		c0-7.089,5.837-12.926,13.065-12.926c7.233,0,12.931,5.837,12.931,12.926v80.078c0,7.228-5.697,13.067-12.931,13.067h-20.154
		C111.604,228.301,95.616,212.315,95.616,192.712z"/>
	<path display="inline" d="M207.247,110.904c0,15.986-10.287,29.75-25.577,34.34c-6.954,1.944-14.183-1.946-16.127-8.899
		c-2.086-6.95,1.944-14.178,8.895-16.124c4.033-1.253,6.812-5.006,6.812-9.316c0-5.281-4.31-9.592-9.731-9.592h-7.089v67.148
		h-25.996V88.382c0-7.229,5.697-13.067,12.93-13.067h20.155C191.259,75.315,207.247,91.301,207.247,110.904z"/>
	<circle display="inline" fill="#FFFFFF" cx="178.374" cy="126.146" r="2.294"/>
	<path display="inline" fill="#FFFFFF" d="M122.689,167.021c0,1.267-1.028,2.297-2.295,2.297c-1.268,0-2.295-1.03-2.295-2.297
		c0-1.266,1.027-2.292,2.295-2.292C121.661,164.729,122.689,165.755,122.689,167.021z"/>
	<rect x="138.433" y="135.156" display="inline" width="25.996" height="33.305"/>
</g>
<g id="Layer_8">
	<g>
		<path fill="#ABD56C" d="M207.128,170.361c0,8.28-5.328,15.409-13.248,17.786c-3.602,1.008-7.346-1.008-8.354-4.609
			c-1.08-3.6,1.008-7.344,4.608-8.352c2.089-0.648,3.528-2.593,3.528-4.825c0-2.735-2.232-4.968-5.04-4.968h-3.673v34.778
			c0,3.673-3.023,6.696-6.768,6.696c-3.745,0-6.697-3.023-6.697-6.696v-41.476c0-3.744,2.952-6.769,6.697-6.769h10.44
			C198.848,151.927,207.128,160.208,207.128,170.361z"/>
		<path fill="#ABD46C" d="M243.353,170.361v18.506v18.794c0,9.217-7.489,16.633-16.634,16.633c-7.992,0-14.905-5.688-16.417-13.465
			c-0.433-2.377,1.151-4.608,3.456-5.041c2.305-0.432,4.537,1.08,5.041,3.385c0.72,3.816,4.031,6.553,7.92,6.553
			c4.393,0,8.064-3.601,8.064-8.064v-4.248c-2.447,1.367-5.184,2.088-8.064,2.088c-9.217,0-16.705-7.417-16.705-16.634v-18.506
			c0-2.376,1.943-4.32,4.32-4.32c2.376,0,4.32,1.944,4.32,4.32v18.506c0,4.464,3.6,8.064,8.064,8.064
			c4.393,0,8.064-3.601,8.064-8.064v-18.506c0-2.376,1.873-4.32,4.249-4.32S243.353,167.985,243.353,170.361z"/>
		<path fill="#ABD46C" d="M271.575,203.124c0,2.305-1.943,4.248-4.32,4.248c-8.28,0-15.049-6.768-15.049-15.049v-17.642h-0.288
			c-2.304,0-4.249-1.944-4.249-4.32s1.945-4.32,4.249-4.32h0.288v-9.864c0-2.377,1.872-4.249,4.248-4.249
			c2.377,0,4.32,1.872,4.32,4.249v9.864h4.824c2.377,0,4.32,1.944,4.32,4.32s-1.943,4.32-4.32,4.32h-4.824v17.642
			c0,3.601,2.881,6.48,6.48,6.48C269.631,198.803,271.575,200.748,271.575,203.124z"/>
		<path fill="#ABD46C" d="M307.719,182.243v20.377c0,2.377-1.943,4.248-4.32,4.248c-2.376,0-4.248-1.871-4.248-4.248v-20.377
			c0-4.465-3.601-8.065-8.064-8.065c-4.465,0-8.064,3.601-8.064,8.065v20.377c0,2.377-1.945,4.248-4.32,4.248
			c-2.089,0-3.816-1.439-4.177-3.384c-0.072-0.288-0.072-0.576-0.072-0.864v-20.377v-26.066c0-2.377,1.872-4.249,4.249-4.249
			c2.375,0,4.32,1.872,4.32,4.249v11.521c2.375-1.368,5.111-2.089,8.064-2.089C300.231,165.608,307.719,173.026,307.719,182.243z"/>
		<path fill="#ABD46C" d="M346.383,182.243v8.424c0,9.217-7.416,16.705-16.633,16.705c-9.146,0-16.635-7.488-16.635-16.705v-8.424
			c0-9.217,7.489-16.635,16.635-16.635C338.967,165.608,346.383,173.026,346.383,182.243z M337.815,182.243
			c0-4.465-3.601-8.065-8.064-8.065c-4.465,0-8.065,3.601-8.065,8.065v8.424c0,4.465,3.601,8.064,8.065,8.064
			c4.464,0,8.064-3.6,8.064-8.064V182.243z"/>
		<path fill="#ABD46C" d="M385.407,182.243v20.377c0,2.377-1.943,4.248-4.32,4.248c-2.376,0-4.248-1.871-4.248-4.248v-20.377
			c0-4.465-3.672-8.065-8.064-8.065c-4.465,0-8.064,3.601-8.064,8.065v2.592v17.785c0,2.377-1.945,4.248-4.32,4.248
			c-2.377,0-4.249-1.871-4.249-4.248v-17.785v-2.592v-11.882c0-2.376,1.872-4.32,4.249-4.32c1.512,0,2.879,0.792,3.672,2.017
			c2.52-1.584,5.473-2.449,8.713-2.449C377.918,165.608,385.407,173.026,385.407,182.243z"/>
		<path fill="#21C3EE" d="M427.221,170.361c0,8.28-5.328,15.409-13.248,17.786c-3.602,1.008-7.346-1.008-8.354-4.609
			c-1.08-3.6,1.008-7.344,4.608-8.352c2.089-0.648,3.528-2.593,3.528-4.825c0-2.735-2.232-4.968-5.04-4.968h-3.673v34.778
			c0,3.673-3.023,6.696-6.768,6.696c-3.745,0-6.697-3.023-6.697-6.696v-41.476c0-3.744,2.952-6.769,6.697-6.769h10.44
			C418.941,151.927,427.221,160.208,427.221,170.361z"/>
		<path fill="#21C3EE" d="M451.989,169.857c0,2.376-1.945,4.32-4.321,4.32c-4.464,0-8.064,3.601-8.064,8.065v20.377
			c0,2.377-1.872,4.248-4.249,4.248c-2.375,0-4.32-1.871-4.32-4.248v-32.259c0-2.376,1.945-4.32,4.32-4.32
			c1.513,0,2.881,0.792,3.602,2.017c2.52-1.584,5.544-2.449,8.712-2.449C450.043,165.608,451.989,167.481,451.989,169.857z"/>
		<path fill="#21C3EE" d="M485.765,182.243v8.424c0,9.217-7.416,16.705-16.633,16.705c-9.146,0-16.635-7.488-16.635-16.705v-8.424
			c0-9.217,7.489-16.635,16.635-16.635C478.349,165.608,485.765,173.026,485.765,182.243z M477.197,182.243
			c0-4.465-3.601-8.065-8.064-8.065c-4.465,0-8.065,3.601-8.065,8.065v8.424c0,4.465,3.601,8.064,8.065,8.064
			c4.464,0,8.064-3.6,8.064-8.064V182.243z"/>
	</g>
	<path fill="#ABD56C" d="M207.247,112.604c0,15.986-10.287,29.75-25.577,34.34c-6.954,1.944-14.183-1.946-16.127-8.899
		c-2.086-6.95,1.944-14.178,8.895-16.124c4.033-1.253,6.812-5.006,6.812-9.316c0-5.281-4.31-9.592-9.731-9.592h-7.089v45.337
		h-25.996V90.083c0-7.229,5.697-13.067,12.93-13.067h20.155C191.259,77.016,207.247,93.002,207.247,112.604z"/>
	<path fill="#21C2ED" d="M95.616,184.202c0-15.979,10.286-29.744,25.577-34.333c6.954-1.945,14.182,1.946,16.127,8.899
		c2.086,6.95-1.945,14.177-8.895,16.12c-4.035,1.252-6.814,5.003-6.814,9.313c0,5.281,4.311,9.591,9.733,9.591h7.089v-67.441h25.996
		v80.372c0,7.228-5.697,13.067-12.931,13.067h-20.154C111.604,219.791,95.616,203.804,95.616,184.202z"/>
	<circle fill="#FFFFFF" cx="178.374" cy="127.847" r="2.294"/>
	<path fill="#FFFFFF" d="M122.689,158.518c0,1.267-1.028,2.297-2.295,2.297c-1.268,0-2.295-1.03-2.295-2.297
		c0-1.266,1.027-2.292,2.295-2.292C121.661,156.226,122.689,157.252,122.689,158.518z"/>
	<g>
		<polygon fill="#ABD56C" points="139.609,126.239 140.77,126.239 140.189,148.403 139.609,170.567 139.029,148.403 
			138.448,126.239 		"/>
		<polygon fill="#ABD56C" points="141.975,126.239 143.135,126.239 142.555,148.403 141.975,170.567 141.395,148.403 
			140.814,126.239 		"/>
		<polygon fill="#ABD56C" points="144.341,126.239 145.501,126.239 144.921,148.403 144.341,170.567 143.76,148.403 143.18,126.239 
					"/>
		<polygon fill="#ABD56C" points="146.707,126.239 147.868,126.239 147.287,148.403 146.707,170.567 146.127,148.403 
			145.546,126.239 		"/>
		<polygon fill="#ABD56C" points="149.073,126.239 150.233,126.239 149.653,148.403 149.073,170.567 148.493,148.403 
			147.912,126.239 		"/>
		<polygon fill="#ABD56C" points="151.439,126.239 152.6,126.239 152.019,148.403 151.439,170.567 150.859,148.403 150.278,126.239 
					"/>
		<polygon fill="#ABD56C" points="153.805,126.239 154.965,126.239 154.384,148.403 153.805,170.567 153.225,148.403 
			152.644,126.239 		"/>
		<polygon fill="#ABD56C" points="156.17,126.239 157.331,126.239 156.75,148.403 156.17,170.567 155.59,148.403 155.01,126.239 		
			"/>
		<polygon fill="#ABD56C" points="158.536,126.239 159.697,126.239 159.117,148.403 158.536,170.567 157.956,148.403 
			157.376,126.239 		"/>
		<polygon fill="#ABD56C" points="160.902,126.239 162.063,126.239 161.483,148.403 160.902,170.567 160.323,148.403 
			159.742,126.239 		"/>
		<polygon fill="#ABD56C" points="163.269,126.239 164.429,126.239 163.849,148.403 163.269,170.567 162.688,148.403 
			162.108,126.239 		"/>
	</g>
</g>
</svg>
