P1
# CREATOR: GIMP PNM Filter Version 1.1
60 22
1011111111111111111111111011111111111111111111111111111111111111011111
1101111111101111110111111101111111111011101101111011111110110111011011
1110111111101101110110111011101111110111101110111111111111101111101110
1111111111111011111111011111011110111101101110110111011110111101101110
1101110111011101110101101101101100110111011001101101101100110111011001
1011011011111101101111111101101111111101101111111101101111111101101111
1001101110011001101110011001101110011001101110011001101110010110101001
1001101010011001101010011001101010011001101010011011011011011011011011
0110110110110110110110110110110110110110100101011001100101011001100101
0110011001010110011001010110010101011001100101011001100101011001100101
0110011001010110011000100100100100100100100100100100100100100100100100
1001001001101010011001101010011001101010011001101010011001101010011001
0010011001100010011001100010011001100010011001100010011001101001000000
0010010000000010010000000010010000000010010000000001001001100100010011
0010010010011001000100110010010010011001010001000100010010001001000010
0001000100100010010000100001000001000000001000000000000010001000001000
0000000000100010000000000010001000100100010010000000100000100100010010
0000001000010010001000000000010000000100000010000000010000000100000010
000000000000000000000000000000100000000000000000000000100000