<svg xmlns="http://www.w3.org/2000/svg"><g stroke="none"><rect fill="#21C2ED" height="3" width="3" x="0" y="0" /><rect fill="#ABD56C" height="3" width="3" x="3" y="0" /><rect fill="#ABD56C" height="3" width="3" x="6" y="0" /><rect fill="#ABD56C" height="3" width="3" x="9" y="0" /><rect fill="#ABD56C" height="3" width="3" x="12" y="0" /><rect fill="#ABD56C" height="3" width="3" x="15" y="0" /><rect fill="#ABD56C" height="3" width="3" x="18" y="0" /><rect fill="#21C2ED" height="3" width="3" x="21" y="0" /><rect fill="#ABD56C" height="3" width="3" x="24" y="0" /><rect fill="#ABD56C" height="3" width="3" x="27" y="0" /><rect fill="#ABD56C" height="3" width="3" x="30" y="0" /><rect fill="#ABD56C" height="3" width="3" x="33" y="0" /><rect fill="#ABD56C" height="3" width="3" x="36" y="0" /><rect fill="#ABD56C" height="3" width="3" x="39" y="0" /><rect fill="#ABD56C" height="3" width="3" x="42" y="0" /><rect fill="#ABD56C" height="3" width="3" x="45" y="0" /><rect fill="#21C2ED" height="3" width="3" x="48" y="0" /><rect fill="#ABD56C" height="3" width="3" x="51" y="0" /><rect fill="#ABD56C" height="3" width="3" x="54" y="0" /><rect fill="#ABD56C" height="3" width="3" x="57" y="0" /><rect fill="#ABD56C" height="3" width="3" x="0" y="3" /><rect fill="#ABD56C" height="3" width="3" x="3" y="3" /><rect fill="#ABD56C" height="3" width="3" x="6" y="3" /><rect fill="#ABD56C" height="3" width="3" x="9" y="3" /><rect fill="#ABD56C" height="3" width="3" x="12" y="3" /><rect fill="#21C2ED" height="3" width="3" x="15" y="3" /><rect fill="#ABD56C" height="3" width="3" x="18" y="3" /><rect fill="#ABD56C" height="3" width="3" x="21" y="3" /><rect fill="#ABD56C" height="3" width="3" x="24" y="3" /><rect fill="#ABD56C" height="3" width="3" x="27" y="3" /><rect fill="#ABD56C" height="3" width="3" x="30" y="3" /><rect fill="#ABD56C" height="3" width="3" x="33" y="3" /><rect fill="#ABD56C" height="3" width="3" x="36" y="3" /><rect fill="#ABD56C" height="3" width="3" x="39" y="3" /><rect fill="#ABD56C" height="3" width="3" x="42" y="3" /><rect fill="#ABD56C" height="3" width="3" x="45" y="3" /><rect fill="#ABD56C" height="3" width="3" x="48" y="3" /><rect fill="#ABD56C" height="3" width="3" x="51" y="3" /><rect fill="#ABD56C" height="3" width="3" x="54" y="3" /><rect fill="#ABD56C" height="3" width="3" x="57" y="3" /><rect fill="#ABD56C" height="3" width="3" x="0" y="6" /><rect fill="#ABD56C" height="3" width="3" x="3" y="6" /><rect fill="#ABD56C" height="3" width="3" x="6" y="6" /><rect fill="#ABD56C" height="3" width="3" x="9" y="6" /><rect fill="#ABD56C" height="3" width="3" x="12" y="6" /><rect fill="#ABD56C" height="3" width="3" x="15" y="6" /><rect fill="#ABD56C" height="3" width="3" x="18" y="6" /><rect fill="#ABD56C" height="3" width="3" x="21" y="6" /><rect fill="#ABD56C" height="3" width="3" x="24" y="6" /><rect fill="#ABD56C" height="3" width="3" x="27" y="6" /><rect fill="#21C2ED" height="3" width="3" x="30" y="6" /><rect fill="#ABD56C" height="3" width="3" x="33" y="6" /><rect fill="#ABD56C" height="3" width="3" x="36" y="6" /><rect fill="#21C2ED" height="3" width="3" x="39" y="6" /><rect fill="#ABD56C" height="3" width="3" x="42" y="6" /><rect fill="#ABD56C" height="3" width="3" x="45" y="6" /><rect fill="#ABD56C" height="3" width="3" x="48" y="6" /><rect fill="#ABD56C" height="3" width="3" x="51" y="6" /><rect fill="#ABD56C" height="3" width="3" x="54" y="6" /><rect fill="#21C2ED" height="3" width="3" x="57" y="6" /><rect fill="#ABD56C" height="3" width="3" x="0" y="9" /><rect fill="#ABD56C" height="3" width="3" x="3" y="9" /><rect fill="#ABD56C" height="3" width="3" x="6" y="9" /><rect fill="#21C2ED" height="3" width="3" x="9" y="9" /><rect fill="#ABD56C" height="3" width="3" x="12" y="9" /><rect fill="#ABD56C" height="3" width="3" x="15" y="9" /><rect fill="#21C2ED" height="3" width="3" x="18" y="9" /><rect fill="#ABD56C" height="3" width="3" x="21" y="9" /><rect fill="#ABD56C" height="3" width="3" x="24" y="9" /><rect fill="#ABD56C" height="3" width="3" x="27" y="9" /><rect fill="#ABD56C" height="3" width="3" x="30" y="9" /><rect fill="#ABD56C" height="3" width="3" x="33" y="9" /><rect fill="#ABD56C" height="3" width="3" x="36" y="9" /><rect fill="#ABD56C" height="3" width="3" x="39" y="9" /><rect fill="#ABD56C" height="3" width="3" x="42" y="9" /><rect fill="#21C2ED" height="3" width="3" x="45" y="9" /><rect fill="#ABD56C" height="3" width="3" x="48" y="9" /><rect fill="#ABD56C" height="3" width="3" x="51" y="9" /><rect fill="#ABD56C" height="3" width="3" x="54" y="9" /><rect fill="#ABD56C" height="3" width="3" x="57" y="9" /><rect fill="#ABD56C" height="3" width="3" x="0" y="12" /><rect fill="#21C2ED" height="3" width="3" x="3" y="12" /><rect fill="#ABD56C" height="3" width="3" x="6" y="12" /><rect fill="#ABD56C" height="3" width="3" x="9" y="12" /><rect fill="#ABD56C" height="3" width="3" x="12" y="12" /><rect fill="#ABD56C" height="3" width="3" x="15" y="12" /><rect fill="#ABD56C" height="3" width="3" x="18" y="12" /><rect fill="#ABD56C" height="3" width="3" x="21" y="12" /><rect fill="#21C2ED" height="3" width="3" x="24" y="12" /><rect fill="#ABD56C" height="3" width="3" x="27" y="12" /><rect fill="#ABD56C" height="3" width="3" x="30" y="12" /><rect fill="#21C2ED" height="3" width="3" x="33" y="12" /><rect fill="#ABD56C" height="3" width="3" x="36" y="12" /><rect fill="#ABD56C" height="3" width="3" x="39" y="12" /><rect fill="#ABD56C" height="3" width="3" x="42" y="12" /><rect fill="#ABD56C" height="3" width="3" x="45" y="12" /><rect fill="#ABD56C" height="3" width="3" x="48" y="12" /><rect fill="#21C2ED" height="3" width="3" x="51" y="12" /><rect fill="#ABD56C" height="3" width="3" x="54" y="12" /><rect fill="#ABD56C" height="3" width="3" x="57" y="12" /><rect fill="#ABD56C" height="3" width="3" x="0" y="15" /><rect fill="#ABD56C" height="3" width="3" x="3" y="15" /><rect fill="#ABD56C" height="3" width="3" x="6" y="15" /><rect fill="#ABD56C" height="3" width="3" x="9" y="15" /><rect fill="#21C2ED" height="3" width="3" x="12" y="15" /><rect fill="#ABD56C" height="3" width="3" x="15" y="15" /><rect fill="#ABD56C" height="3" width="3" x="18" y="15" /><rect fill="#ABD56C" height="3" width="3" x="21" y="15" /><rect fill="#ABD56C" height="3" width="3" x="24" y="15" /><rect fill="#ABD56C" height="3" width="3" x="27" y="15" /><rect fill="#ABD56C" height="3" width="3" x="30" y="15" /><rect fill="#ABD56C" height="3" width="3" x="33" y="15" /><rect fill="#ABD56C" height="3" width="3" x="36" y="15" /><rect fill="#21C2ED" height="3" width="3" x="39" y="15" /><rect fill="#ABD56C" height="3" width="3" x="42" y="15" /><rect fill="#ABD56C" height="3" width="3" x="45" y="15" /><rect fill="#ABD56C" height="3" width="3" x="48" y="15" /><rect fill="#ABD56C" height="3" width="3" x="51" y="15" /><rect fill="#ABD56C" height="3" width="3" x="54" y="15" /><rect fill="#ABD56C" height="3" width="3" x="57" y="15" /><rect fill="#ABD56C" height="3" width="3" x="0" y="18" /><rect fill="#ABD56C" height="3" width="3" x="3" y="18" /><rect fill="#21C2ED" height="3" width="3" x="6" y="18" /><rect fill="#ABD56C" height="3" width="3" x="9" y="18" /><rect fill="#ABD56C" height="3" width="3" x="12" y="18" /><rect fill="#ABD56C" height="3" width="3" x="15" y="18" /><rect fill="#ABD56C" height="3" width="3" x="18" y="18" /><rect fill="#21C2ED" height="3" width="3" x="21" y="18" /><rect fill="#ABD56C" height="3" width="3" x="24" y="18" /><rect fill="#ABD56C" height="3" width="3" x="27" y="18" /><rect fill="#21C2ED" height="3" width="3" x="30" y="18" /><rect fill="#ABD56C" height="3" width="3" x="33" y="18" /><rect fill="#ABD56C" height="3" width="3" x="36" y="18" /><rect fill="#ABD56C" height="3" width="3" x="39" y="18" /><rect fill="#ABD56C" height="3" width="3" x="42" y="18" /><rect fill="#21C2ED" height="3" width="3" x="45" y="18" /><rect fill="#ABD56C" height="3" width="3" x="48" y="18" /><rect fill="#ABD56C" height="3" width="3" x="51" y="18" /><rect fill="#21C2ED" height="3" width="3" x="54" y="18" /><rect fill="#ABD56C" height="3" width="3" x="57" y="18" /><rect fill="#21C2ED" height="3" width="3" x="0" y="21" /><rect fill="#ABD56C" height="3" width="3" x="3" y="21" /><rect fill="#ABD56C" height="3" width="3" x="6" y="21" /><rect fill="#21C2ED" height="3" width="3" x="9" y="21" /><rect fill="#ABD56C" height="3" width="3" x="12" y="21" /><rect fill="#21C2ED" height="3" width="3" x="15" y="21" /><rect fill="#ABD56C" height="3" width="3" x="18" y="21" /><rect fill="#ABD56C" height="3" width="3" x="21" y="21" /><rect fill="#21C2ED" height="3" width="3" x="24" y="21" /><rect fill="#ABD56C" height="3" width="3" x="27" y="21" /><rect fill="#ABD56C" height="3" width="3" x="30" y="21" /><rect fill="#ABD56C" height="3" width="3" x="33" y="21" /><rect fill="#21C2ED" height="3" width="3" x="36" y="21" /><rect fill="#ABD56C" height="3" width="3" x="39" y="21" /><rect fill="#ABD56C" height="3" width="3" x="42" y="21" /><rect fill="#ABD56C" height="3" width="3" x="45" y="21" /><rect fill="#ABD56C" height="3" width="3" x="48" y="21" /><rect fill="#21C2ED" height="3" width="3" x="51" y="21" /><rect fill="#ABD56C" height="3" width="3" x="54" y="21" /><rect fill="#ABD56C" height="3" width="3" x="57" y="21" /><rect fill="#ABD56C" height="3" width="3" x="0" y="24" /><rect fill="#21C2ED" height="3" width="3" x="3" y="24" /><rect fill="#ABD56C" height="3" width="3" x="6" y="24" /><rect fill="#ABD56C" height="3" width="3" x="9" y="24" /><rect fill="#ABD56C" height="3" width="3" x="12" y="24" /><rect fill="#21C2ED" height="3" width="3" x="15" y="24" /><rect fill="#ABD56C" height="3" width="3" x="18" y="24" /><rect fill="#ABD56C" height="3" width="3" x="21" y="24" /><rect fill="#21C2ED" height="3" width="3" x="24" y="24" /><rect fill="#ABD56C" height="3" width="3" x="27" y="24" /><rect fill="#21C2ED" height="3" width="3" x="30" y="24" /><rect fill="#ABD56C" height="3" width="3" x="33" y="24" /><rect fill="#ABD56C" height="3" width="3" x="36" y="24" /><rect fill="#21C2ED" height="3" width="3" x="39" y="24" /><rect fill="#21C2ED" height="3" width="3" x="42" y="24" /><rect fill="#ABD56C" height="3" width="3" x="45" y="24" /><rect fill="#ABD56C" height="3" width="3" x="48" y="24" /><rect fill="#21C2ED" height="3" width="3" x="51" y="24" /><rect fill="#ABD56C" height="3" width="3" x="54" y="24" /><rect fill="#ABD56C" height="3" width="3" x="57" y="24" /><rect fill="#ABD56C" height="3" width="3" x="0" y="27" /><rect fill="#21C2ED" height="3" width="3" x="3" y="27" /><rect fill="#ABD56C" height="3" width="3" x="6" y="27" /><rect fill="#ABD56C" height="3" width="3" x="9" y="27" /><rect fill="#21C2ED" height="3" width="3" x="12" y="27" /><rect fill="#ABD56C" height="3" width="3" x="15" y="27" /><rect fill="#ABD56C" height="3" width="3" x="18" y="27" /><rect fill="#ABD56C" height="3" width="3" x="21" y="27" /><rect fill="#ABD56C" height="3" width="3" x="24" y="27" /><rect fill="#ABD56C" height="3" width="3" x="27" y="27" /><rect fill="#21C2ED" height="3" width="3" x="30" y="27" /><rect fill="#ABD56C" height="3" width="3" x="33" y="27" /><rect fill="#ABD56C" height="3" width="3" x="36" y="27" /><rect fill="#ABD56C" height="3" width="3" x="39" y="27" /><rect fill="#ABD56C" height="3" width="3" x="42" y="27" /><rect fill="#21C2ED" height="3" width="3" x="45" y="27" /><rect fill="#ABD56C" height="3" width="3" x="48" y="27" /><rect fill="#ABD56C" height="3" width="3" x="51" y="27" /><rect fill="#21C2ED" height="3" width="3" x="54" y="27" /><rect fill="#ABD56C" height="3" width="3" x="57" y="27" /><rect fill="#ABD56C" height="3" width="3" x="0" y="30" /><rect fill="#ABD56C" height="3" width="3" x="3" y="30" /><rect fill="#21C2ED" height="3" width="3" x="6" y="30" /><rect fill="#21C2ED" height="3" width="3" x="9" y="30" /><rect fill="#ABD56C" height="3" width="3" x="12" y="30" /><rect fill="#ABD56C" height="3" width="3" x="15" y="30" /><rect fill="#21C2ED" height="3" width="3" x="18" y="30" /><rect fill="#21C2ED" height="3" width="3" x="21" y="30" /><rect fill="#ABD56C" height="3" width="3" x="24" y="30" /><rect fill="#ABD56C" height="3" width="3" x="27" y="30" /><rect fill="#ABD56C" height="3" width="3" x="30" y="30" /><rect fill="#21C2ED" height="3" width="3" x="33" y="30" /><rect fill="#21C2ED" height="3" width="3" x="36" y="30" /><rect fill="#ABD56C" height="3" width="3" x="39" y="30" /><rect fill="#ABD56C" height="3" width="3" x="42" y="30" /><rect fill="#ABD56C" height="3" width="3" x="45" y="30" /><rect fill="#21C2ED" height="3" width="3" x="48" y="30" /><rect fill="#ABD56C" height="3" width="3" x="51" y="30" /><rect fill="#ABD56C" height="3" width="3" x="54" y="30" /><rect fill="#21C2ED" height="3" width="3" x="57" y="30" /><rect fill="#21C2ED" height="3" width="3" x="0" y="33" /><rect fill="#ABD56C" height="3" width="3" x="3" y="33" /><rect fill="#21C2ED" height="3" width="3" x="6" y="33" /><rect fill="#ABD56C" height="3" width="3" x="9" y="33" /><rect fill="#ABD56C" height="3" width="3" x="12" y="33" /><rect fill="#21C2ED" height="3" width="3" x="15" y="33" /><rect fill="#ABD56C" height="3" width="3" x="18" y="33" /><rect fill="#ABD56C" height="3" width="3" x="21" y="33" /><rect fill="#21C2ED" height="3" width="3" x="24" y="33" /><rect fill="#21C2ED" height="3" width="3" x="27" y="33" /><rect fill="#ABD56C" height="3" width="3" x="30" y="33" /><rect fill="#ABD56C" height="3" width="3" x="33" y="33" /><rect fill="#ABD56C" height="3" width="3" x="36" y="33" /><rect fill="#21C2ED" height="3" width="3" x="39" y="33" /><rect fill="#21C2ED" height="3" width="3" x="42" y="33" /><rect fill="#ABD56C" height="3" width="3" x="45" y="33" /><rect fill="#21C2ED" height="3" width="3" x="48" y="33" /><rect fill="#21C2ED" height="3" width="3" x="51" y="33" /><rect fill="#ABD56C" height="3" width="3" x="54" y="33" /><rect fill="#ABD56C" height="3" width="3" x="57" y="33" /><rect fill="#ABD56C" height="3" width="3" x="0" y="36" /><rect fill="#21C2ED" height="3" width="3" x="3" y="36" /><rect fill="#ABD56C" height="3" width="3" x="6" y="36" /><rect fill="#ABD56C" height="3" width="3" x="9" y="36" /><rect fill="#21C2ED" height="3" width="3" x="12" y="36" /><rect fill="#21C2ED" height="3" width="3" x="15" y="36" /><rect fill="#ABD56C" height="3" width="3" x="18" y="36" /><rect fill="#ABD56C" height="3" width="3" x="21" y="36" /><rect fill="#21C2ED" height="3" width="3" x="24" y="36" /><rect fill="#ABD56C" height="3" width="3" x="27" y="36" /><rect fill="#21C2ED" height="3" width="3" x="30" y="36" /><rect fill="#21C2ED" height="3" width="3" x="33" y="36" /><rect fill="#ABD56C" height="3" width="3" x="36" y="36" /><rect fill="#ABD56C" height="3" width="3" x="39" y="36" /><rect fill="#ABD56C" height="3" width="3" x="42" y="36" /><rect fill="#21C2ED" height="3" width="3" x="45" y="36" /><rect fill="#ABD56C" height="3" width="3" x="48" y="36" /><rect fill="#ABD56C" height="3" width="3" x="51" y="36" /><rect fill="#21C2ED" height="3" width="3" x="54" y="36" /><rect fill="#21C2ED" height="3" width="3" x="57" y="36" /><rect fill="#ABD56C" height="3" width="3" x="0" y="39" /><rect fill="#21C2ED" height="3" width="3" x="3" y="39" /><rect fill="#ABD56C" height="3" width="3" x="6" y="39" /><rect fill="#21C2ED" height="3" width="3" x="9" y="39" /><rect fill="#ABD56C" height="3" width="3" x="12" y="39" /><rect fill="#ABD56C" height="3" width="3" x="15" y="39" /><rect fill="#21C2ED" height="3" width="3" x="18" y="39" /><rect fill="#21C2ED" height="3" width="3" x="21" y="39" /><rect fill="#ABD56C" height="3" width="3" x="24" y="39" /><rect fill="#ABD56C" height="3" width="3" x="27" y="39" /><rect fill="#21C2ED" height="3" width="3" x="30" y="39" /><rect fill="#ABD56C" height="3" width="3" x="33" y="39" /><rect fill="#21C2ED" height="3" width="3" x="36" y="39" /><rect fill="#21C2ED" height="3" width="3" x="39" y="39" /><rect fill="#ABD56C" height="3" width="3" x="42" y="39" /><rect fill="#21C2ED" height="3" width="3" x="45" y="39" /><rect fill="#ABD56C" height="3" width="3" x="48" y="39" /><rect fill="#ABD56C" height="3" width="3" x="51" y="39" /><rect fill="#ABD56C" height="3" width="3" x="54" y="39" /><rect fill="#21C2ED" height="3" width="3" x="57" y="39" /><rect fill="#21C2ED" height="3" width="3" x="0" y="42" /><rect fill="#ABD56C" height="3" width="3" x="3" y="42" /><rect fill="#ABD56C" height="3" width="3" x="6" y="42" /><rect fill="#21C2ED" height="3" width="3" x="9" y="42" /><rect fill="#ABD56C" height="3" width="3" x="12" y="42" /><rect fill="#21C2ED" height="3" width="3" x="15" y="42" /><rect fill="#ABD56C" height="3" width="3" x="18" y="42" /><rect fill="#ABD56C" height="3" width="3" x="21" y="42" /><rect fill="#ABD56C" height="3" width="3" x="24" y="42" /><rect fill="#21C2ED" height="3" width="3" x="27" y="42" /><rect fill="#ABD56C" height="3" width="3" x="30" y="42" /><rect fill="#ABD56C" height="3" width="3" x="33" y="42" /><rect fill="#21C2ED" height="3" width="3" x="36" y="42" /><rect fill="#ABD56C" height="3" width="3" x="39" y="42" /><rect fill="#ABD56C" height="3" width="3" x="42" y="42" /><rect fill="#21C2ED" height="3" width="3" x="45" y="42" /><rect fill="#21C2ED" height="3" width="3" x="48" y="42" /><rect fill="#21C2ED" height="3" width="3" x="51" y="42" /><rect fill="#ABD56C" height="3" width="3" x="54" y="42" /><rect fill="#ABD56C" height="3" width="3" x="57" y="42" /><rect fill="#ABD56C" height="3" width="3" x="0" y="45" /><rect fill="#21C2ED" height="3" width="3" x="3" y="45" /><rect fill="#21C2ED" height="3" width="3" x="6" y="45" /><rect fill="#ABD56C" height="3" width="3" x="9" y="45" /><rect fill="#ABD56C" height="3" width="3" x="12" y="45" /><rect fill="#21C2ED" height="3" width="3" x="15" y="45" /><rect fill="#ABD56C" height="3" width="3" x="18" y="45" /><rect fill="#ABD56C" height="3" width="3" x="21" y="45" /><rect fill="#21C2ED" height="3" width="3" x="24" y="45" /><rect fill="#ABD56C" height="3" width="3" x="27" y="45" /><rect fill="#21C2ED" height="3" width="3" x="30" y="45" /><rect fill="#ABD56C" height="3" width="3" x="33" y="45" /><rect fill="#ABD56C" height="3" width="3" x="36" y="45" /><rect fill="#21C2ED" height="3" width="3" x="39" y="45" /><rect fill="#21C2ED" height="3" width="3" x="42" y="45" /><rect fill="#ABD56C" height="3" width="3" x="45" y="45" /><rect fill="#ABD56C" height="3" width="3" x="48" y="45" /><rect fill="#21C2ED" height="3" width="3" x="51" y="45" /><rect fill="#ABD56C" height="3" width="3" x="54" y="45" /><rect fill="#ABD56C" height="3" width="3" x="57" y="45" /><rect fill="#ABD56C" height="3" width="3" x="0" y="48" /><rect fill="#ABD56C" height="3" width="3" x="3" y="48" /><rect fill="#21C2ED" height="3" width="3" x="6" y="48" /><rect fill="#21C2ED" height="3" width="3" x="9" y="48" /><rect fill="#ABD56C" height="3" width="3" x="12" y="48" /><rect fill="#21C2ED" height="3" width="3" x="15" y="48" /><rect fill="#21C2ED" height="3" width="3" x="18" y="48" /><rect fill="#21C2ED" height="3" width="3" x="21" y="48" /><rect fill="#ABD56C" height="3" width="3" x="24" y="48" /><rect fill="#ABD56C" height="3" width="3" x="27" y="48" /><rect fill="#21C2ED" height="3" width="3" x="30" y="48" /><rect fill="#21C2ED" height="3" width="3" x="33" y="48" /><rect fill="#ABD56C" height="3" width="3" x="36" y="48" /><rect fill="#21C2ED" height="3" width="3" x="39" y="48" /><rect fill="#ABD56C" height="3" width="3" x="42" y="48" /><rect fill="#21C2ED" height="3" width="3" x="45" y="48" /><rect fill="#21C2ED" height="3" width="3" x="48" y="48" /><rect fill="#ABD56C" height="3" width="3" x="51" y="48" /><rect fill="#21C2ED" height="3" width="3" x="54" y="48" /><rect fill="#21C2ED" height="3" width="3" x="57" y="48" /><rect fill="#21C2ED" height="3" width="3" x="0" y="51" /><rect fill="#ABD56C" height="3" width="3" x="3" y="51" /><rect fill="#ABD56C" height="3" width="3" x="6" y="51" /><rect fill="#21C2ED" height="3" width="3" x="9" y="51" /><rect fill="#21C2ED" height="3" width="3" x="12" y="51" /><rect fill="#ABD56C" height="3" width="3" x="15" y="51" /><rect fill="#ABD56C" height="3" width="3" x="18" y="51" /><rect fill="#21C2ED" height="3" width="3" x="21" y="51" /><rect fill="#21C2ED" height="3" width="3" x="24" y="51" /><rect fill="#21C2ED" height="3" width="3" x="27" y="51" /><rect fill="#ABD56C" height="3" width="3" x="30" y="51" /><rect fill="#21C2ED" height="3" width="3" x="33" y="51" /><rect fill="#21C2ED" height="3" width="3" x="36" y="51" /><rect fill="#ABD56C" height="3" width="3" x="39" y="51" /><rect fill="#ABD56C" height="3" width="3" x="42" y="51" /><rect fill="#21C2ED" height="3" width="3" x="45" y="51" /><rect fill="#21C2ED" height="3" width="3" x="48" y="51" /><rect fill="#ABD56C" height="3" width="3" x="51" y="51" /><rect fill="#21C2ED" height="3" width="3" x="54" y="51" /><rect fill="#21C2ED" height="3" width="3" x="57" y="51" /><rect fill="#21C2ED" height="3" width="3" x="0" y="54" /><rect fill="#21C2ED" height="3" width="3" x="3" y="54" /><rect fill="#21C2ED" height="3" width="3" x="6" y="54" /><rect fill="#ABD56C" height="3" width="3" x="9" y="54" /><rect fill="#21C2ED" height="3" width="3" x="12" y="54" /><rect fill="#21C2ED" height="3" width="3" x="15" y="54" /><rect fill="#ABD56C" height="3" width="3" x="18" y="54" /><rect fill="#ABD56C" height="3" width="3" x="21" y="54" /><rect fill="#21C2ED" height="3" width="3" x="24" y="54" /><rect fill="#21C2ED" height="3" width="3" x="27" y="54" /><rect fill="#ABD56C" height="3" width="3" x="30" y="54" /><rect fill="#ABD56C" height="3" width="3" x="33" y="54" /><rect fill="#21C2ED" height="3" width="3" x="36" y="54" /><rect fill="#21C2ED" height="3" width="3" x="39" y="54" /><rect fill="#21C2ED" height="3" width="3" x="42" y="54" /><rect fill="#ABD56C" height="3" width="3" x="45" y="54" /><rect fill="#ABD56C" height="3" width="3" x="48" y="54" /><rect fill="#21C2ED" height="3" width="3" x="51" y="54" /><rect fill="#ABD56C" height="3" width="3" x="54" y="54" /><rect fill="#ABD56C" height="3" width="3" x="57" y="54" /><rect fill="#ABD56C" height="3" width="3" x="0" y="57" /><rect fill="#21C2ED" height="3" width="3" x="3" y="57" /><rect fill="#21C2ED" height="3" width="3" x="6" y="57" /><rect fill="#ABD56C" height="3" width="3" x="9" y="57" /><rect fill="#ABD56C" height="3" width="3" x="12" y="57" /><rect fill="#21C2ED" height="3" width="3" x="15" y="57" /><rect fill="#21C2ED" height="3" width="3" x="18" y="57" /><rect fill="#21C2ED" height="3" width="3" x="21" y="57" /><rect fill="#ABD56C" height="3" width="3" x="24" y="57" /><rect fill="#ABD56C" height="3" width="3" x="27" y="57" /><rect fill="#21C2ED" height="3" width="3" x="30" y="57" /><rect fill="#21C2ED" height="3" width="3" x="33" y="57" /><rect fill="#ABD56C" height="3" width="3" x="36" y="57" /><rect fill="#21C2ED" height="3" width="3" x="39" y="57" /><rect fill="#21C2ED" height="3" width="3" x="42" y="57" /><rect fill="#ABD56C" height="3" width="3" x="45" y="57" /><rect fill="#21C2ED" height="3" width="3" x="48" y="57" /><rect fill="#21C2ED" height="3" width="3" x="51" y="57" /><rect fill="#21C2ED" height="3" width="3" x="54" y="57" /><rect fill="#21C2ED" height="3" width="3" x="57" y="57" /><rect fill="#ABD56C" height="3" width="3" x="0" y="60" /><rect fill="#21C2ED" height="3" width="3" x="3" y="60" /><rect fill="#ABD56C" height="3" width="3" x="6" y="60" /><rect fill="#21C2ED" height="3" width="3" x="9" y="60" /><rect fill="#21C2ED" height="3" width="3" x="12" y="60" /><rect fill="#ABD56C" height="3" width="3" x="15" y="60" /><rect fill="#21C2ED" height="3" width="3" x="18" y="60" /><rect fill="#21C2ED" height="3" width="3" x="21" y="60" /><rect fill="#ABD56C" height="3" width="3" x="24" y="60" /><rect fill="#21C2ED" height="3" width="3" x="27" y="60" /><rect fill="#21C2ED" height="3" width="3" x="30" y="60" /><rect fill="#21C2ED" height="3" width="3" x="33" y="60" /><rect fill="#ABD56C" height="3" width="3" x="36" y="60" /><rect fill="#ABD56C" height="3" width="3" x="39" y="60" /><rect fill="#21C2ED" height="3" width="3" x="42" y="60" /><rect fill="#21C2ED" height="3" width="3" x="45" y="60" /><rect fill="#21C2ED" height="3" width="3" x="48" y="60" /><rect fill="#ABD56C" height="3" width="3" x="51" y="60" /><rect fill="#ABD56C" height="3" width="3" x="54" y="60" /><rect fill="#21C2ED" height="3" width="3" x="57" y="60" /><rect fill="#21C2ED" height="3" width="3" x="0" y="63" /><rect fill="#21C2ED" height="3" width="3" x="3" y="63" /><rect fill="#ABD56C" height="3" width="3" x="6" y="63" /><rect fill="#21C2ED" height="3" width="3" x="9" y="63" /><rect fill="#21C2ED" height="3" width="3" x="12" y="63" /><rect fill="#ABD56C" height="3" width="3" x="15" y="63" /><rect fill="#21C2ED" height="3" width="3" x="18" y="63" /><rect fill="#21C2ED" height="3" width="3" x="21" y="63" /><rect fill="#21C2ED" height="3" width="3" x="24" y="63" /><rect fill="#21C2ED" height="3" width="3" x="27" y="63" /><rect fill="#ABD56C" height="3" width="3" x="30" y="63" /><rect fill="#21C2ED" height="3" width="3" x="33" y="63" /><rect fill="#21C2ED" height="3" width="3" x="36" y="63" /><rect fill="#21C2ED" height="3" width="3" x="39" y="63" /><rect fill="#ABD56C" height="3" width="3" x="42" y="63" /><rect fill="#21C2ED" height="3" width="3" x="45" y="63" /><rect fill="#21C2ED" height="3" width="3" x="48" y="63" /><rect fill="#21C2ED" height="3" width="3" x="51" y="63" /><rect fill="#21C2ED" height="3" width="3" x="54" y="63" /><rect fill="#ABD56C" height="3" width="3" x="57" y="63" /><rect fill="#21C2ED" height="3" width="3" x="0" y="66" /><rect fill="#21C2ED" height="3" width="3" x="3" y="66" /><rect fill="#21C2ED" height="3" width="3" x="6" y="66" /><rect fill="#21C2ED" height="3" width="3" x="9" y="66" /><rect fill="#ABD56C" height="3" width="3" x="12" y="66" /><rect fill="#21C2ED" height="3" width="3" x="15" y="66" /><rect fill="#21C2ED" height="3" width="3" x="18" y="66" /><rect fill="#ABD56C" height="3" width="3" x="21" y="66" /><rect fill="#21C2ED" height="3" width="3" x="24" y="66" /><rect fill="#21C2ED" height="3" width="3" x="27" y="66" /><rect fill="#ABD56C" height="3" width="3" x="30" y="66" /><rect fill="#21C2ED" height="3" width="3" x="33" y="66" /><rect fill="#21C2ED" height="3" width="3" x="36" y="66" /><rect fill="#21C2ED" height="3" width="3" x="39" y="66" /><rect fill="#ABD56C" height="3" width="3" x="42" y="66" /><rect fill="#21C2ED" height="3" width="3" x="45" y="66" /><rect fill="#ABD56C" height="3" width="3" x="48" y="66" /><rect fill="#21C2ED" height="3" width="3" x="51" y="66" /><rect fill="#21C2ED" height="3" width="3" x="54" y="66" /><rect fill="#ABD56C" height="3" width="3" x="57" y="66" /><rect fill="#21C2ED" height="3" width="3" x="0" y="69" /><rect fill="#ABD56C" height="3" width="3" x="3" y="69" /><rect fill="#21C2ED" height="3" width="3" x="6" y="69" /><rect fill="#21C2ED" height="3" width="3" x="9" y="69" /><rect fill="#21C2ED" height="3" width="3" x="12" y="69" /><rect fill="#21C2ED" height="3" width="3" x="15" y="69" /><rect fill="#ABD56C" height="3" width="3" x="18" y="69" /><rect fill="#21C2ED" height="3" width="3" x="21" y="69" /><rect fill="#21C2ED" height="3" width="3" x="24" y="69" /><rect fill="#ABD56C" height="3" width="3" x="27" y="69" /><rect fill="#21C2ED" height="3" width="3" x="30" y="69" /><rect fill="#21C2ED" height="3" width="3" x="33" y="69" /><rect fill="#ABD56C" height="3" width="3" x="36" y="69" /><rect fill="#21C2ED" height="3" width="3" x="39" y="69" /><rect fill="#21C2ED" height="3" width="3" x="42" y="69" /><rect fill="#21C2ED" height="3" width="3" x="45" y="69" /><rect fill="#ABD56C" height="3" width="3" x="48" y="69" /><rect fill="#21C2ED" height="3" width="3" x="51" y="69" /><rect fill="#21C2ED" height="3" width="3" x="54" y="69" /><rect fill="#21C2ED" height="3" width="3" x="57" y="69" /><rect fill="#ABD56C" height="3" width="3" x="0" y="72" /><rect fill="#21C2ED" height="3" width="3" x="3" y="72" /><rect fill="#21C2ED" height="3" width="3" x="6" y="72" /><rect fill="#ABD56C" height="3" width="3" x="9" y="72" /><rect fill="#21C2ED" height="3" width="3" x="12" y="72" /><rect fill="#21C2ED" height="3" width="3" x="15" y="72" /><rect fill="#21C2ED" height="3" width="3" x="18" y="72" /><rect fill="#21C2ED" height="3" width="3" x="21" y="72" /><rect fill="#ABD56C" height="3" width="3" x="24" y="72" /><rect fill="#21C2ED" height="3" width="3" x="27" y="72" /><rect fill="#21C2ED" height="3" width="3" x="30" y="72" /><rect fill="#21C2ED" height="3" width="3" x="33" y="72" /><rect fill="#21C2ED" height="3" width="3" x="36" y="72" /><rect fill="#21C2ED" height="3" width="3" x="39" y="72" /><rect fill="#21C2ED" height="3" width="3" x="42" y="72" /><rect fill="#21C2ED" height="3" width="3" x="45" y="72" /><rect fill="#21C2ED" height="3" width="3" x="48" y="72" /><rect fill="#ABD56C" height="3" width="3" x="51" y="72" /><rect fill="#21C2ED" height="3" width="3" x="54" y="72" /><rect fill="#21C2ED" height="3" width="3" x="57" y="72" /><rect fill="#21C2ED" height="3" width="3" x="0" y="75" /><rect fill="#21C2ED" height="3" width="3" x="3" y="75" /><rect fill="#21C2ED" height="3" width="3" x="6" y="75" /><rect fill="#21C2ED" height="3" width="3" x="9" y="75" /><rect fill="#21C2ED" height="3" width="3" x="12" y="75" /><rect fill="#ABD56C" height="3" width="3" x="15" y="75" /><rect fill="#21C2ED" height="3" width="3" x="18" y="75" /><rect fill="#21C2ED" height="3" width="3" x="21" y="75" /><rect fill="#21C2ED" height="3" width="3" x="24" y="75" /><rect fill="#21C2ED" height="3" width="3" x="27" y="75" /><rect fill="#ABD56C" height="3" width="3" x="30" y="75" /><rect fill="#21C2ED" height="3" width="3" x="33" y="75" /><rect fill="#21C2ED" height="3" width="3" x="36" y="75" /><rect fill="#ABD56C" height="3" width="3" x="39" y="75" /><rect fill="#21C2ED" height="3" width="3" x="42" y="75" /><rect fill="#21C2ED" height="3" width="3" x="45" y="75" /><rect fill="#21C2ED" height="3" width="3" x="48" y="75" /><rect fill="#21C2ED" height="3" width="3" x="51" y="75" /><rect fill="#21C2ED" height="3" width="3" x="54" y="75" /><rect fill="#ABD56C" height="3" width="3" x="57" y="75" /><rect fill="#21C2ED" height="3" width="3" x="0" y="78" /><rect fill="#21C2ED" height="3" width="3" x="3" y="78" /><rect fill="#ABD56C" height="3" width="3" x="6" y="78" /><rect fill="#21C2ED" height="3" width="3" x="9" y="78" /><rect fill="#21C2ED" height="3" width="3" x="12" y="78" /><rect fill="#21C2ED" height="3" width="3" x="15" y="78" /><rect fill="#21C2ED" height="3" width="3" x="18" y="78" /><rect fill="#ABD56C" height="3" width="3" x="21" y="78" /><rect fill="#21C2ED" height="3" width="3" x="24" y="78" /><rect fill="#21C2ED" height="3" width="3" x="27" y="78" /><rect fill="#21C2ED" height="3" width="3" x="30" y="78" /><rect fill="#21C2ED" height="3" width="3" x="33" y="78" /><rect fill="#21C2ED" height="3" width="3" x="36" y="78" /><rect fill="#21C2ED" height="3" width="3" x="39" y="78" /><rect fill="#21C2ED" height="3" width="3" x="42" y="78" /><rect fill="#ABD56C" height="3" width="3" x="45" y="78" /><rect fill="#21C2ED" height="3" width="3" x="48" y="78" /><rect fill="#21C2ED" height="3" width="3" x="51" y="78" /><rect fill="#21C2ED" height="3" width="3" x="54" y="78" /><rect fill="#21C2ED" height="3" width="3" x="57" y="78" /><rect fill="#21C2ED" height="3" width="3" x="0" y="81" /><rect fill="#21C2ED" height="3" width="3" x="3" y="81" /><rect fill="#21C2ED" height="3" width="3" x="6" y="81" /><rect fill="#21C2ED" height="3" width="3" x="9" y="81" /><rect fill="#ABD56C" height="3" width="3" x="12" y="81" /><rect fill="#21C2ED" height="3" width="3" x="15" y="81" /><rect fill="#21C2ED" height="3" width="3" x="18" y="81" /><rect fill="#21C2ED" height="3" width="3" x="21" y="81" /><rect fill="#21C2ED" height="3" width="3" x="24" y="81" /><rect fill="#21C2ED" height="3" width="3" x="27" y="81" /><rect fill="#21C2ED" height="3" width="3" x="30" y="81" /><rect fill="#ABD56C" height="3" width="3" x="33" y="81" /><rect fill="#21C2ED" height="3" width="3" x="36" y="81" /><rect fill="#21C2ED" height="3" width="3" x="39" y="81" /><rect fill="#21C2ED" height="3" width="3" x="42" y="81" /><rect fill="#21C2ED" height="3" width="3" x="45" y="81" /><rect fill="#21C2ED" height="3" width="3" x="48" y="81" /><rect fill="#ABD56C" height="3" width="3" x="51" y="81" /><rect fill="#21C2ED" height="3" width="3" x="54" y="81" /><rect fill="#21C2ED" height="3" width="3" x="57" y="81" /><rect fill="#21C2ED" height="3" width="3" x="0" y="84" /><rect fill="#ABD56C" height="3" width="3" x="3" y="84" /><rect fill="#21C2ED" height="3" width="3" x="6" y="84" /><rect fill="#21C2ED" height="3" width="3" x="9" y="84" /><rect fill="#21C2ED" height="3" width="3" x="12" y="84" /><rect fill="#21C2ED" height="3" width="3" x="15" y="84" /><rect fill="#21C2ED" height="3" width="3" x="18" y="84" /><rect fill="#21C2ED" height="3" width="3" x="21" y="84" /><rect fill="#21C2ED" height="3" width="3" x="24" y="84" /><rect fill="#21C2ED" height="3" width="3" x="27" y="84" /><rect fill="#21C2ED" height="3" width="3" x="30" y="84" /><rect fill="#21C2ED" height="3" width="3" x="33" y="84" /><rect fill="#21C2ED" height="3" width="3" x="36" y="84" /><rect fill="#21C2ED" height="3" width="3" x="39" y="84" /><rect fill="#ABD56C" height="3" width="3" x="42" y="84" /><rect fill="#21C2ED" height="3" width="3" x="45" y="84" /><rect fill="#21C2ED" height="3" width="3" x="48" y="84" /><rect fill="#21C2ED" height="3" width="3" x="51" y="84" /><rect fill="#21C2ED" height="3" width="3" x="54" y="84" /><rect fill="#21C2ED" height="3" width="3" x="57" y="84" /><rect fill="#21C2ED" height="3" width="3" x="0" y="87" /><rect fill="#21C2ED" height="3" width="3" x="3" y="87" /><rect fill="#21C2ED" height="3" width="3" x="6" y="87" /><rect fill="#21C2ED" height="3" width="3" x="9" y="87" /><rect fill="#21C2ED" height="3" width="3" x="12" y="87" /><rect fill="#21C2ED" height="3" width="3" x="15" y="87" /><rect fill="#21C2ED" height="3" width="3" x="18" y="87" /><rect fill="#21C2ED" height="3" width="3" x="21" y="87" /><rect fill="#21C2ED" height="3" width="3" x="24" y="87" /><rect fill="#ABD56C" height="3" width="3" x="27" y="87" /><rect fill="#21C2ED" height="3" width="3" x="30" y="87" /><rect fill="#21C2ED" height="3" width="3" x="33" y="87" /><rect fill="#21C2ED" height="3" width="3" x="36" y="87" /><rect fill="#21C2ED" height="3" width="3" x="39" y="87" /><rect fill="#21C2ED" height="3" width="3" x="42" y="87" /><rect fill="#21C2ED" height="3" width="3" x="45" y="87" /><rect fill="#21C2ED" height="3" width="3" x="48" y="87" /><rect fill="#21C2ED" height="3" width="3" x="51" y="87" /><rect fill="#21C2ED" height="3" width="3" x="54" y="87" /><rect fill="#21C2ED" height="3" width="3" x="57" y="87" /></g></svg>
